<svg width="987" height="162" viewBox="0 0 987 162" fill="none" xmlns="http://www.w3.org/2000/svg">
<rect x="2.5" y="2.5" width="982" height="157" rx="3.5" stroke="#9B4210" stroke-width="5"/>
<path d="M7 123H28V134M28 134V145.5H18.5V134H28ZM28 134H42.5V149.5M42.5 157V147" stroke="#9B4210" stroke-width="4"/>
<path d="M982.5 123H961.5V134M961.5 134V145.5H971V134H961.5ZM961.5 134H947V149.5M947 157V147" stroke="#9B4210" stroke-width="4"/>
<path d="M7 39H28V28M28 28V16.5H18.5V28H28ZM28 28H42.5V12.5M42.5 5V15" stroke="#9B4210" stroke-width="4"/>
<path d="M982.5 39H961.5V28M961.5 28V16.5H971V28H961.5ZM961.5 28H947V12.5M947 5V15" stroke="#9B4210" stroke-width="4"/>
</svg>
