<svg width="402" height="799" viewBox="0 0 402 799" fill="none" xmlns="http://www.w3.org/2000/svg">
<path d="M397.5 760H376.5V771M376.5 771V782.5H386V771H376.5ZM376.5 771H362V786.5M362 794V784" stroke="#9B4210" stroke-width="4"/>
<path d="M397.5 37H376.5V26M376.5 26V14.5H386V26H376.5ZM376.5 26H362V10.5M362 3V13" stroke="#9B4210" stroke-width="4"/>
<path d="M5 760H26V771M26 771V782.5H16.5V771H26ZM26 771H40.5V786.5M40.5 794V784" stroke="#9B4210" stroke-width="4"/>
<path d="M5 37H26V26M26 26V14.5H16.5V26H26ZM26 26H40.5V10.5M40.5 3V13" stroke="#9B4210" stroke-width="4"/>
<rect x="2.5" y="2.5" width="397" height="794" rx="3.5" stroke="#9B4210" stroke-width="5"/>
</svg>
