<svg width="402" height="162" viewBox="0 0 402 162" fill="none" xmlns="http://www.w3.org/2000/svg">
<rect x="2.5" y="2.5" width="397" height="157" rx="3.5" stroke="#9B4210" stroke-width="5"/>
<path d="M5 123H26V134M26 134V145.5H16.5V134H26ZM26 134H40.5V149.5M40.5 157V147" stroke="#9B4210" stroke-width="4"/>
<path d="M397.5 123H376.5V134M376.5 134V145.5H386V134H376.5ZM376.5 134H362V149.5M362 157V147" stroke="#9B4210" stroke-width="4"/>
<path d="M5 39H26V28M26 28V16.5H16.5V28H26ZM26 28H40.5V12.5M40.5 5V15" stroke="#9B4210" stroke-width="4"/>
<path d="M397.5 39H376.5V28M376.5 28V16.5H386V28H376.5ZM376.5 28H362V12.5M362 5V15" stroke="#9B4210" stroke-width="4"/>
</svg>
